<?xml version="1.0" encoding="UTF-8" standalone="no"?>
<svg xmlns="http://www.w3.org/2000/svg" width="220" height="100" version="1.1">
  <defs>
    <linearGradient id="gradTitleInactive" x1="0" y1="0" x2="0" y2="1">
      <stop offset="0" stop-color="#343434"/>
      <stop offset="1" stop-color="#2c2c2c"/>
    </linearGradient>
  </defs>

    <g id="decoration-topleft" transform="translate(0,0)">
      <rect x="0" y="0" width="5" height="22" fill="#000000"/>
      <rect x="1" y="1" width="4" height="21" fill="url(#gradTitleInactive)"/>
      <rect x="1" y="1" width="1" height="21" fill="#6a6a6a"/>
      <rect x="2" y="2" width="1" height="20" fill="#545454"/>
      <rect x="3" y="3" width="1" height="19" fill="#3a3a3a"/>
      <rect x="1" y="1" width="4" height="1" fill="#6a6a6a"/>
      <rect x="2" y="2" width="3" height="1" fill="#545454"/>
      <rect x="3" y="3" width="2" height="1" fill="#3a3a3a"/>
    </g>
    <g id="decoration-top" transform="translate(5,0)">
      <rect x="0" y="0" width="50" height="22" fill="#000000"/>
      <rect x="0" y="1" width="50" height="19" fill="url(#gradTitleInactive)"/>
      <rect x="0" y="1" width="50" height="1" fill="#6a6a6a"/>
      <rect x="0" y="2" width="50" height="1" fill="#545454"/>
      <rect x="0" y="3" width="50" height="1" fill="#3a3a3a"/>
      <rect x="0" y="19" width="50" height="1" fill="#3a3a3a"/>
      <rect x="0" y="20" width="50" height="2" fill="#080808"/>
    </g>
    <g id="decoration-topright" transform="translate(55,0)">
      <rect x="0" y="0" width="5" height="22" fill="#000000"/>
      <rect x="0" y="1" width="4" height="21" fill="url(#gradTitleInactive)"/>
      <rect x="3" y="1" width="1" height="21" fill="#5a5a5a"/>
      <rect x="2" y="2" width="1" height="20" fill="#464646"/>
      <rect x="1" y="3" width="1" height="19" fill="#333333"/>
      <rect x="0" y="1" width="4" height="1" fill="#6a6a6a"/>
      <rect x="0" y="2" width="3" height="1" fill="#545454"/>
      <rect x="0" y="3" width="2" height="1" fill="#3a3a3a"/>
    </g>
    <g id="decoration-left" transform="translate(0,22)">
      <rect x="0" y="0" width="5" height="50" fill="#000000"/>
      <rect x="1" y="0" width="1" height="50" fill="#6a6a6a"/>
      <rect x="2" y="0" width="1" height="50" fill="#545454"/>
      <rect x="3" y="0" width="1" height="50" fill="#3a3a3a"/>
      <rect x="4" y="0" width="1" height="50" fill="#1a1a1a"/>
    </g>
    <g id="decoration-center" transform="translate(5,22)">
      <rect x="0" y="0" width="50" height="50" fill="#000000"/>
    </g>
    <g id="decoration-right" transform="translate(55,22)">
      <rect x="0" y="0" width="5" height="50" fill="#000000"/>
      <rect x="0" y="0" width="1" height="50" fill="#1a1a1a"/>
      <rect x="1" y="0" width="1" height="50" fill="#333333"/>
      <rect x="2" y="0" width="1" height="50" fill="#464646"/>
      <rect x="3" y="0" width="1" height="50" fill="#5a5a5a"/>
    </g>
    <g id="decoration-bottomleft" transform="translate(0,72)">
      <rect x="0" y="0" width="5" height="5" fill="#000000"/>
      <rect x="1" y="0" width="1" height="1" fill="#6a6a6a"/>
      <rect x="2" y="0" width="1" height="1" fill="#545454"/>
      <rect x="3" y="0" width="1" height="1" fill="#3a3a3a"/>
      <rect x="4" y="0" width="1" height="1" fill="#1a1a1a"/>
      <rect x="1" y="1" width="1" height="1" fill="#6a6a6a"/>
      <rect x="2" y="1" width="1" height="1" fill="#545454"/>
      <rect x="3" y="1" width="2" height="1" fill="#333333"/>
      <rect x="1" y="2" width="1" height="1" fill="#6a6a6a"/>
      <rect x="2" y="2" width="3" height="1" fill="#464646"/>
      <rect x="1" y="3" width="4" height="1" fill="#5a5a5a"/>
    </g>
    <g id="decoration-bottom" transform="translate(5,72)">
      <rect x="0" y="0" width="50" height="5" fill="#000000"/>
      <rect x="0" y="0" width="50" height="1" fill="#1a1a1a"/>
      <rect x="0" y="1" width="50" height="1" fill="#333333"/>
      <rect x="0" y="2" width="50" height="1" fill="#464646"/>
      <rect x="0" y="3" width="50" height="1" fill="#5a5a5a"/>
    </g>
    <g id="decoration-bottomright" transform="translate(55,72)">
      <rect x="0" y="0" width="5" height="5" fill="#000000"/>
      <rect x="0" y="0" width="1" height="1" fill="#1a1a1a"/>
      <rect x="1" y="0" width="1" height="1" fill="#333333"/>
      <rect x="2" y="0" width="1" height="1" fill="#464646"/>
      <rect x="3" y="0" width="1" height="1" fill="#5a5a5a"/>
      <rect x="0" y="1" width="2" height="1" fill="#333333"/>
      <rect x="2" y="1" width="1" height="1" fill="#464646"/>
      <rect x="3" y="1" width="1" height="1" fill="#5a5a5a"/>
      <rect x="0" y="2" width="3" height="1" fill="#464646"/>
      <rect x="3" y="2" width="1" height="1" fill="#5a5a5a"/>
      <rect x="0" y="3" width="4" height="1" fill="#5a5a5a"/>
    </g>

    <g id="decoration-inactive-topleft" transform="translate(110,0)">
      <rect x="0" y="0" width="5" height="22" fill="#000000"/>
      <rect x="1" y="1" width="4" height="21" fill="url(#gradTitleInactive)"/>
      <rect x="1" y="1" width="1" height="21" fill="#6a6a6a"/>
      <rect x="2" y="2" width="1" height="20" fill="#545454"/>
      <rect x="3" y="3" width="1" height="19" fill="#3a3a3a"/>
      <rect x="1" y="1" width="4" height="1" fill="#6a6a6a"/>
      <rect x="2" y="2" width="3" height="1" fill="#545454"/>
      <rect x="3" y="3" width="2" height="1" fill="#3a3a3a"/>
    </g>
    <g id="decoration-inactive-top" transform="translate(115,0)">
      <rect x="0" y="0" width="50" height="22" fill="#000000"/>
      <rect x="0" y="1" width="50" height="19" fill="url(#gradTitleInactive)"/>
      <rect x="0" y="1" width="50" height="1" fill="#6a6a6a"/>
      <rect x="0" y="2" width="50" height="1" fill="#545454"/>
      <rect x="0" y="3" width="50" height="1" fill="#3a3a3a"/>
      <rect x="0" y="19" width="50" height="1" fill="#3a3a3a"/>
      <rect x="0" y="20" width="50" height="2" fill="#080808"/>
    </g>
    <g id="decoration-inactive-topright" transform="translate(165,0)">
      <rect x="0" y="0" width="5" height="22" fill="#000000"/>
      <rect x="0" y="1" width="4" height="21" fill="url(#gradTitleInactive)"/>
      <rect x="3" y="1" width="1" height="21" fill="#5a5a5a"/>
      <rect x="2" y="2" width="1" height="20" fill="#464646"/>
      <rect x="1" y="3" width="1" height="19" fill="#333333"/>
      <rect x="0" y="1" width="4" height="1" fill="#6a6a6a"/>
      <rect x="0" y="2" width="3" height="1" fill="#545454"/>
      <rect x="0" y="3" width="2" height="1" fill="#3a3a3a"/>
    </g>
    <g id="decoration-inactive-left" transform="translate(110,22)">
      <rect x="0" y="0" width="5" height="50" fill="#000000"/>
      <rect x="1" y="0" width="1" height="50" fill="#6a6a6a"/>
      <rect x="2" y="0" width="1" height="50" fill="#545454"/>
      <rect x="3" y="0" width="1" height="50" fill="#3a3a3a"/>
      <rect x="4" y="0" width="1" height="50" fill="#1a1a1a"/>
    </g>
    <g id="decoration-inactive-center" transform="translate(115,22)">
      <rect x="0" y="0" width="50" height="50" fill="#000000"/>
    </g>
    <g id="decoration-inactive-right" transform="translate(165,22)">
      <rect x="0" y="0" width="5" height="50" fill="#000000"/>
      <rect x="0" y="0" width="1" height="50" fill="#1a1a1a"/>
      <rect x="1" y="0" width="1" height="50" fill="#333333"/>
      <rect x="2" y="0" width="1" height="50" fill="#464646"/>
      <rect x="3" y="0" width="1" height="50" fill="#5a5a5a"/>
    </g>
    <g id="decoration-inactive-bottomleft" transform="translate(110,72)">
      <rect x="0" y="0" width="5" height="5" fill="#000000"/>
      <rect x="1" y="0" width="1" height="1" fill="#6a6a6a"/>
      <rect x="2" y="0" width="1" height="1" fill="#545454"/>
      <rect x="3" y="0" width="1" height="1" fill="#3a3a3a"/>
      <rect x="4" y="0" width="1" height="1" fill="#1a1a1a"/>
      <rect x="1" y="1" width="1" height="1" fill="#6a6a6a"/>
      <rect x="2" y="1" width="1" height="1" fill="#545454"/>
      <rect x="3" y="1" width="2" height="1" fill="#333333"/>
      <rect x="1" y="2" width="1" height="1" fill="#6a6a6a"/>
      <rect x="2" y="2" width="3" height="1" fill="#464646"/>
      <rect x="1" y="3" width="4" height="1" fill="#5a5a5a"/>
    </g>
    <g id="decoration-inactive-bottom" transform="translate(115,72)">
      <rect x="0" y="0" width="50" height="5" fill="#000000"/>
      <rect x="0" y="0" width="50" height="1" fill="#1a1a1a"/>
      <rect x="0" y="1" width="50" height="1" fill="#333333"/>
      <rect x="0" y="2" width="50" height="1" fill="#464646"/>
      <rect x="0" y="3" width="50" height="1" fill="#5a5a5a"/>
    </g>
    <g id="decoration-inactive-bottomright" transform="translate(165,72)">
      <rect x="0" y="0" width="5" height="5" fill="#000000"/>
      <rect x="0" y="0" width="1" height="1" fill="#1a1a1a"/>
      <rect x="1" y="0" width="1" height="1" fill="#333333"/>
      <rect x="2" y="0" width="1" height="1" fill="#464646"/>
      <rect x="3" y="0" width="1" height="1" fill="#5a5a5a"/>
      <rect x="0" y="1" width="2" height="1" fill="#333333"/>
      <rect x="2" y="1" width="1" height="1" fill="#464646"/>
      <rect x="3" y="1" width="1" height="1" fill="#5a5a5a"/>
      <rect x="0" y="2" width="3" height="1" fill="#464646"/>
      <rect x="3" y="2" width="1" height="1" fill="#5a5a5a"/>
      <rect x="0" y="3" width="4" height="1" fill="#5a5a5a"/>
    </g>

  <rect id="decoration-maximized-center"          x="200" y="55" width="5" height="5" fill="#2f2f2f"/>
  <rect id="decoration-maximized-inactive-center" x="200" y="65" width="5" height="5" fill="#2f2f2f"/>

  <rect id="hint-top-margin"    x="200" y="0"  width="5" height="22" fill="#00ff29"/>
  <rect id="hint-bottom-margin" x="200" y="25" width="5" height="5" fill="#00ff29"/>
  <rect id="hint-left-margin"   x="200" y="35" width="5" height="5" fill="#00ff29"/>
  <rect id="hint-right-margin"  x="200" y="45" width="5" height="5" fill="#00ff29"/>
</svg>
